<svg viewBox="0 -44 512 512" xmlns="http://www.w3.org/2000/svg"><path d="m479.28125 0h-446.5625c-18.042969 0-32.71875 14.675781-32.71875 32.71875v314.578125c0 16.621094 12.460938 30.378906 28.53125 32.441406v26.140625c0 10.289063 8.371094 18.660156 18.664062 18.660156h33.070313c7.320313 0 13.996094-4.3125 17.007813-10.984374l15.144531-33.539063h287.164062l15.144531 33.539063c3.011719 6.671874 9.6875 10.984374 17.007813 10.984374h33.070313c10.292968 0 18.664062-8.371093 18.664062-18.660156v-26.140625c16.070312-2.0625 28.53125-15.820312 28.53125-32.441406v-314.578125c0-18.042969-14.675781-32.71875-32.71875-32.71875zm-395.675781 407.382812c-.59375 1.3125-1.902344 2.15625-3.339844 2.15625h-33.070313c-2.019531 0-3.664062-1.644531-3.664062-3.660156v-25.863281h52.429688zm381.199219 2.15625h-33.070313c-1.4375 0-2.746094-.84375-3.335937-2.152343l-12.359376-27.371094h52.429688v25.863281c0 2.019532-1.644531 3.660156-3.664062 3.660156zm32.195312-62.242187c0 9.769531-7.945312 17.71875-17.71875 17.71875h-74.996094c-.019531 0-.039062 0-.058594 0h-296.457031c-.015625 0-.03125 0-.046875 0h-75.003906c-9.773438 0-17.71875-7.949219-17.71875-17.71875v-314.578125c0-9.773438 7.945312-17.71875 17.71875-17.71875h446.5625c9.773438 0 17.71875 7.945312 17.71875 17.71875zm0 0"/><path d="m455.863281 38.90625h-399.726562c-9.5 0-17.230469 7.730469-17.230469 17.230469v267.742187c0 9.5 7.730469 17.230469 17.230469 17.230469h266.113281c4.144531 0 7.5-3.359375 7.5-7.5 0-4.144531-3.355469-7.5-7.5-7.5h-266.113281c-1.230469 0-2.230469-1-2.230469-2.230469v-267.742187c0-1.230469 1-2.230469 2.230469-2.230469h399.726562c1.230469 0 2.230469 1 2.230469 2.230469v267.742187c0 1.230469-1 2.226563-2.230469 2.226563h-105.613281c-4.144531 0-7.5 3.359375-7.5 7.5 0 4.144531 3.355469 7.5 7.5 7.5h105.613281c9.5 0 17.230469-7.726563 17.230469-17.226563v-267.742187c0-9.5-7.730469-17.230469-17.230469-17.230469zm0 0"/><path d="m315.8125 154.710938h16.429688c13.433593 0 24.359374-10.929688 24.359374-24.363282 0-13.429687-10.929687-24.359375-24.359374-24.359375h-16.429688c-13.429688 0-24.359375 10.929688-24.359375 24.359375 0 13.433594 10.929687 24.363282 24.359375 24.363282zm0-33.722657h16.429688c5.160156 0 9.359374 4.199219 9.359374 9.359375 0 5.164063-4.199218 9.363282-9.359374 9.363282h-16.429688c-5.160156 0-9.359375-4.199219-9.359375-9.363282 0-5.160156 4.199219-9.359375 9.359375-9.359375zm0 0"/><path d="m391.898438 154.710938h16.425781c13.433593 0 24.359375-10.929688 24.359375-24.363282 0-13.429687-10.925782-24.359375-24.359375-24.359375h-16.425781c-13.433594 0-24.359376 10.929688-24.359376 24.359375 0 13.433594 10.925782 24.363282 24.359376 24.363282zm0-33.722657h16.425781c5.164062 0 9.359375 4.199219 9.359375 9.359375 0 5.164063-4.195313 9.363282-9.359375 9.363282h-16.425781c-5.160157 0-9.359376-4.199219-9.359376-9.363282 0-5.160156 4.199219-9.359375 9.359376-9.359375zm0 0"/><path d="m315.8125 214.367188h16.429688c13.433593 0 24.359374-10.925782 24.359374-24.359376 0-13.433593-10.929687-24.359374-24.359374-24.359374h-16.429688c-13.429688 0-24.359375 10.925781-24.359375 24.359374 0 13.433594 10.929687 24.359376 24.359375 24.359376zm0-33.71875h16.429688c5.160156 0 9.359374 4.199218 9.359374 9.359374 0 5.160157-4.199218 9.359376-9.359374 9.359376h-16.429688c-5.160156 0-9.359375-4.199219-9.359375-9.359376 0-5.160156 4.199219-9.359374 9.359375-9.359374zm0 0"/><path d="m391.898438 214.367188h16.425781c13.433593 0 24.359375-10.925782 24.359375-24.359376 0-13.433593-10.925782-24.359374-24.359375-24.359374h-16.425781c-13.433594 0-24.359376 10.925781-24.359376 24.359374 0 13.433594 10.925782 24.359376 24.359376 24.359376zm0-33.71875h16.425781c5.164062 0 9.359375 4.199218 9.359375 9.359374 0 5.160157-4.195313 9.359376-9.359375 9.359376h-16.425781c-5.160157 0-9.359376-4.199219-9.359376-9.359376 0-5.160156 4.199219-9.359374 9.359376-9.359374zm0 0"/><path d="m315.8125 274.023438h16.429688c13.433593 0 24.359374-10.925782 24.359374-24.359376 0-13.429687-10.929687-24.359374-24.359374-24.359374h-16.429688c-13.429688 0-24.359375 10.929687-24.359375 24.359374 0 13.433594 10.929687 24.359376 24.359375 24.359376zm0-33.71875h16.429688c5.160156 0 9.359374 4.199218 9.359374 9.359374 0 5.160157-4.199218 9.359376-9.359374 9.359376h-16.429688c-5.160156 0-9.359375-4.199219-9.359375-9.359376 0-5.160156 4.199219-9.359374 9.359375-9.359374zm0 0"/><path d="m391.898438 274.023438h16.425781c13.433593 0 24.359375-10.925782 24.359375-24.359376 0-13.429687-10.925782-24.359374-24.359375-24.359374h-16.425781c-13.433594 0-24.359376 10.929687-24.359376 24.359374 0 13.433594 10.925782 24.359376 24.359376 24.359376zm0-33.71875h16.425781c5.164062 0 9.359375 4.199218 9.359375 9.359374 0 5.160157-4.195313 9.359376-9.359375 9.359376h-16.425781c-5.160157 0-9.359376-4.199219-9.359376-9.359376 0-5.160156 4.199219-9.359374 9.359376-9.359374zm0 0"/><path d="m234.152344 139.734375c1.988281 2.402344 3.847656 4.9375 5.53125 7.546875 2.246094 3.480469 6.890625 4.480469 10.371094 2.234375 3.476562-2.246094 4.480468-6.890625 2.234374-10.371094-2.144531-3.320312-4.523437-6.539062-7.070312-9.570312-1.714844-2.042969-3.53125-4.019531-5.417969-5.914063-.03125-.027344-.054687-.0625-.085937-.09375-.027344-.027344-.058594-.050781-.089844-.078125-1.898438-1.894531-3.875-3.707031-5.917969-5.425781-14.875-12.515625-32.957031-20.003906-52.261719-21.652344-2.597656-.230468-5.277343-.347656-7.949218-.351562-.074219-.003906-.148438-.011719-.222656-.011719-.074219 0-.144532.007813-.21875.011719-2.675782.003906-5.339844.121094-7.914063.347656-19.339844 1.652344-37.425781 9.144531-52.300781 21.652344-2.058594 1.734375-4.039063 3.550781-5.925782 5.4375-.027343.023437-.054687.046875-.082031.070312-.011719.011719-.019531.023438-.03125.035156-1.925781 1.925782-3.753906 3.925782-5.46875 5.976563-12.523437 14.871094-20.015625 32.953125-21.664062 52.269531-.238281 2.671875-.359375 5.421875-.359375 8.164063 0 2.742187.121094 5.488281.355468 8.136719 1.652344 19.335937 9.144532 37.417968 21.648438 52.28125 3.457031 4.125 7.335938 8.007812 11.527344 11.53125 14.875 12.511718 32.960937 20 52.273437 21.648437 2.683594.238281 5.429688.359375 8.164063.359375s5.480468-.121094 8.136718-.355469c19.335938-1.652343 37.417969-9.140625 52.289063-21.652343 4.132813-3.476563 8.007813-7.347657 11.527344-11.519532 12.511719-14.894531 19.996093-32.976562 21.648437-52.265625.234375-2.683593.355469-5.429687.355469-8.164062 0-2.738281-.121094-5.484375-.355469-8.140625-.433594-5.066406-1.285156-10.125-2.527344-15.027344-1.019531-4.015625-5.09375-6.445312-9.113281-5.429688-4.015625 1.019532-6.445312 5.101563-5.425781 9.113282.988281 3.90625 1.671875 7.925781 2.050781 11.980468h-25.742187c-1.289063-9.125-4.882813-17.515624-10.1875-24.558593zm-60.878906 88.660156c-21.164063 0-38.386719-17.222656-38.386719-38.386719 0-21.167968 17.222656-38.386718 38.386719-38.386718 21.167968 0 38.386718 17.21875 38.386718 38.386718 0 21.164063-17.21875 38.386719-38.386718 38.386719zm50.273437-99.265625-18.214844 18.214844c-7.042969-5.300781-15.433593-8.898438-24.554687-10.1875v-25.738281c15.773437 1.476562 30.535156 7.589843 42.769531 17.710937zm-57.773437-17.707031v25.734375c-9.121094 1.289062-17.511719 4.886719-24.554688 10.1875l-18.214844-18.214844c12.222656-10.113281 26.972656-16.222656 42.769532-17.707031zm-53.371094 28.320313 18.210937 18.207031c-5.304687 7.042969-8.898437 15.433593-10.1875 24.558593h-25.746093c1.476562-15.773437 7.589843-30.523437 17.722656-42.765624zm-17.722656 57.765624h25.746093c1.289063 9.125 4.882813 17.515626 10.1875 24.554688l-18.21875 18.21875c-10.121093-12.226562-16.230469-26.976562-17.714843-42.773438zm28.320312 53.378907 18.21875-18.214844c7.042969 5.300781 15.433594 8.894531 24.558594 10.183594v25.746093c-15.785156-1.480468-30.546875-7.589843-42.777344-17.714843zm57.773438 17.714843v-25.746093c9.125-1.289063 17.515624-4.882813 24.554687-10.1875l18.222656 18.21875c-12.230469 10.121093-26.980469 16.230469-42.777343 17.714843zm53.386718-28.316406-18.222656-18.222656c5.304688-7.039062 8.898438-15.429688 10.1875-24.554688h25.746094c-1.476563 15.765626-7.589844 30.53125-17.710938 42.777344zm0 0"/></svg>