<?xml version="1.0" encoding="utf-8"?>
<!-- Generator: Adobe Illustrator 23.0.1, SVG Export Plug-In . SVG Version: 6.00 Build 0)  -->
<svg version="1.1" id="Layer_1" xmlns="http://www.w3.org/2000/svg" xmlns:xlink="http://www.w3.org/1999/xlink" x="0px" y="0px"
	 viewBox="0 0 512 344" style="enable-background:new 0 0 512 344;" xml:space="preserve">
<style type="text/css">
  .st0 { fill: none; }
  .st1 { fill: #000; }
  .st2 { fill: #000; }
</style>
<g>
	<path class="st0" d="M424,312c13.3,0,24-10.7,24-24h-48C400,301.3,410.7,312,424,312z"/>
	<path class="st0" d="M88,312c13.3,0,24-10.7,24-24H64C64,301.3,74.7,312,88,312z"/>
	<path class="st0" d="M424,264c-13.3,0-24,10.7-24,24h48C448,274.7,437.3,264,424,264z"/>
	<path class="st0" d="M40,176c-17.7,0-32,14.3-32,32v80h32c0-26.5,21.5-48,48-48s48,21.5,48,48h32V176H40z"/>
	<path class="st0" d="M424,240c-26.5,0-48,21.5-48,48s21.5,48,48,48s48-21.5,48-48S450.5,240,424,240z M424,312
		c-13.3,0-24-10.7-24-24s10.7-24,24-24s24,10.7,24,24S437.3,312,424,312z"/>
	<path class="st0" d="M88,240c-26.5,0-48,21.5-48,48s21.5,48,48,48s48-21.5,48-48S114.5,240,88,240z M88,312c-13.3,0-24-10.7-24-24
		s10.7-24,24-24s24,10.7,24,24S101.3,312,88,312z"/>
	<path class="st0" d="M88,264c-13.3,0-24,10.7-24,24h48C112,274.7,101.3,264,88,264z"/>
	<path class="st0" d="M168,32H56c-17.7,0-32,14.3-32,32v16h144V32z"/>
	<path class="st0" d="M168,8v280h208c0-26.5,21.5-48,48-48s48,21.5,48,48h32V8H168z"/>
</g>
<path class="st1" d="M469.7,42.3c-3.1-3.1-8.2-3.1-11.3,0L312,188.7l-58.3-58.3c-3.1-3-8.1-3-11.2,0.1s-3.1,8.1-0.1,11.2l64,64
	c3.1,3.1,8.2,3.1,11.3,0l152-152C472.8,50.5,472.8,45.5,469.7,42.3z"/>
<path class="st1" d="M424,256c-17.7,0-32,14.3-32,32s14.3,32,32,32s32-14.3,32-32S441.7,256,424,256z M424,304c-8.8,0-16-7.2-16-16
	s7.2-16,16-16s16,7.2,16,16S432.8,304,424,304z"/>
<path class="st1" d="M88,256c-17.7,0-32,14.3-32,32s14.3,32,32,32s32-14.3,32-32S105.7,256,88,256z M88,304c-8.8,0-16-7.2-16-16
	s7.2-16,16-16s16,7.2,16,16S96.8,304,88,304z"/>
<path class="st2" d="M504,0H168c-4.4,0-8,3.6-8,8v16h-40c-4.4,0-8,3.6-8,8s3.6,8,8,8h40v32H32v-8c0-13.3,10.7-24,24-24h24
	c4.4,0,8-3.6,8-8s-3.6-8-8-8H56c-22.1,0-40,17.9-40,40v16c0,4.4,3.6,8,8,8h15.3l-6.7,80.8C13.7,172.3,0,188.8,0,208v80
	c0,4.4,3.6,8,8,8h24.6c4,27.5,27.5,48,55.4,48s51.4-20.4,55.4-48H296c4.4,0,8-3.6,8-8s-3.6-8-8-8H176V16h320v264h-16.6
	c-4-27.5-27.5-48-55.4-48s-51.4,20.4-55.4,48H328c-4.4,0-8,3.6-8,8s3.6,8,8,8h40.6c4,27.5,27.5,48,55.4,48s51.4-20.4,55.4-48H504
	c4.4,0,8-3.6,8-8V8C512,3.6,508.4,0,504,0z M88,328c-22.1,0-40-17.9-40-40s17.9-40,40-40s40,17.9,40,40C128,310.1,110.1,328,88,328z
	 M160,280h-16.6c-4-27.5-27.5-48-55.4-48s-51.4,20.4-55.4,48H16v-72c0-13.3,10.7-24,24-24h120V280z M160,168H48.7l6.7-80H160V168z
	 M424,328c-22.1,0-40-17.9-40-40s17.9-40,40-40s40,17.9,40,40C464,310.1,446.1,328,424,328z"/>
</svg>
