<?xml version="1.0" encoding="utf-8"?>
<!-- Generator: Adobe Illustrator 23.0.1, SVG Export Plug-In . SVG Version: 6.00 Build 0)  -->
<svg version="1.1" id="Layer_1" xmlns="http://www.w3.org/2000/svg" xmlns:xlink="http://www.w3.org/1999/xlink" x="0px" y="0px"
	 viewBox="0 0 512 512" style="enable-background:new 0 0 512 512;" xml:space="preserve">
<style type="text/css">
	.st0{fill:#CF4254;}
</style>
<g transform="translate(0 1)">
	<g>
		<path class="st0" d="M486.4,424c-50.9-27-90-42.2-124.8-48l3.6-4.9c1.7-1.7,2.6-4.3,1.7-6.8l-8-32c2.9-4.1,5.6-8.3,8.2-12.7
			c31.8-10.8,47.9-29.1,50.6-56.1c14-0.7,26-13.2,26-27.3v-64c0-14-11.1-26.4-25.8-27.3C416.1,95.7,394.4-1,256-1
			C117.6-1,95.9,95.7,94,145c-13.9,0.8-25.7,12.4-25.7,27.3v64c0,14.5,12.8,27.3,28.2,27.3h12.8c4.7,0,9.2-1.4,13.2-3.7
			c4.8,25.7,15.5,50.9,30.7,72.4l-8,32c0,1.7,0,4.3,1.7,6.8l3.6,4.9c-34.8,5.8-73.8,21-124.8,48C9.4,431.6,0,447.9,0,465.8v36.7
			c0,5.1,3.4,8.5,8.5,8.5h204.8h3.4h78.5h3.4h204.8c5.1,0,8.5-3.4,8.5-8.5v-36.7C512,448.7,501.8,432.5,486.4,424z M256,404.4
			l20.4,46.8h-41.2L256,404.4z M229,468.3h53.9l5,25.6h-64L229,468.3z M345.6,348.9l3.4,15.4l-8.7,12c-0.6,0.5-1.1,1-1.5,1.7
			L303.3,427L292,442.5l-23-51.8c28.1-3.4,53-17.7,73.1-38.2C343.3,351.3,344.4,350.1,345.6,348.9z M378.9,295.8
			c4.8-11.7,8.4-23.9,10.7-36.2c3.2,2,6.9,3.3,10.9,3.7C399.1,275.4,393.8,286.8,378.9,295.8z M425.8,171.4v64
			c0,5.1-4.3,10.2-10.2,10.2h-12.8c-5.1,0-10.2-4.3-10.2-10.2v-6v-58c0-5.1,4.3-10.2,10.2-10.2h12.8
			C420.7,161.1,425.8,165.4,425.8,171.4z M256,16.1c52.6,0,141.1,17.2,144.9,129c-3.6,0.4-7,1.5-10.1,3.1
			c-10.4-65-67-115.1-134.8-115.1c-67.8,0-124.4,50.1-134.8,115c-3.1-1.6-6.5-2.7-10.1-3.1C114.9,33.2,203.4,16.1,256,16.1z
			 M118.6,235.4c0,5.1-4.3,10.2-10.2,10.2H95.6c-5.1,0-10.2-4.3-10.2-10.2v-64c0-5.1,4.3-10.2,10.2-10.2h12.8
			c5.1,0,10.2,4.3,10.2,10.2V235.4z M136.5,169.7c0-65.7,53.8-119.5,119.5-119.5S375.5,104,375.5,169.7v59.7
			c0,28.2-7.4,54.1-19.3,75.9c-20.4,5.9-49.7,9.4-91.7,9.4c-5.1,0-8.5,3.4-8.5,8.5s3.4,8.5,8.5,8.5c30.7,0,56.5-1.9,77.5-5.8
			c-0.5,0.5-1,1-1.6,1.6c-4.3,5.7-8.8,10.9-13.6,15.6c-20.1,18.7-44.1,30.1-67.2,31.2c-1.2-0.5-2.5-0.8-3.8-0.8
			c-1.3,0-2.5,0.3-3.6,0.8c-14.1-0.6-28.6-5.1-42.3-12.8c-13.9-8-27-19.5-38.6-34c-0.9-0.9-1.7-1.7-2.6-2.6l-0.5-0.2
			c-19.2-25.1-31.9-58.2-31.9-95.4L136.5,169.7L136.5,169.7z M243,390.7l-23,51.8L208.7,427l-35.5-49.1c-0.3-0.3-0.6-0.5-0.9-0.8
			l-9.4-12.8l3.4-15.4c1.2,1.2,2.3,2.5,3.5,3.6C189.9,373,214.9,387.3,243,390.7z M17.1,465.8c0-11.1,6-21.3,16.2-26.5
			c54.4-28.9,93.5-43.4,128.4-47.7l50.9,70l-6.5,32.3H17.1V465.8z M494.9,493.9H305.8l-6.5-32.3l51.5-70.8
			c34.8,5.2,74.6,19.7,127.9,47.6c10.2,6,16.2,16.2,16.2,27.3L494.9,493.9L494.9,493.9z"/>
	</g>
</g>
</svg>
