<?xml version="1.0" standalone="no"?>
<!DOCTYPE svg PUBLIC "-//W3C//DTD SVG 20010904//EN"
 "http://www.w3.org/TR/2001/REC-SVG-20010904/DTD/svg10.dtd">
<svg version="1.0" xmlns="http://www.w3.org/2000/svg"
 width="50.000000pt" height="50.000000pt" viewBox="0 0 50.000000 50.000000"
 preserveAspectRatio="xMidYMid meet">

<g transform="translate(0.000000,50.000000) scale(0.100000,-0.100000)"
fill="#000000" stroke="none">
<path d="M45 447 c-3 -7 -4 -100 -3 -207 l3 -195 205 0 205 0 0 205 0 205
-203 3 c-159 2 -204 0 -207 -11z m395 -27 c0 -19 -7 -20 -190 -20 -183 0 -190
1 -190 20 0 19 7 20 190 20 183 0 190 -1 190 -20z m0 -200 l0 -160 -190 0
-190 0 0 160 0 160 190 0 190 0 0 -160z"/>
<path d="M70 420 c0 -5 5 -10 10 -10 6 0 10 5 10 10 0 6 -4 10 -10 10 -5 0
-10 -4 -10 -10z"/>
<path d="M100 420 c0 -5 5 -10 10 -10 6 0 10 5 10 10 0 6 -4 10 -10 10 -5 0
-10 -4 -10 -10z"/>
<path d="M130 420 c0 -5 5 -10 10 -10 6 0 10 5 10 10 0 6 -4 10 -10 10 -5 0
-10 -4 -10 -10z"/>
<path d="M222 305 c-34 -34 -27 -77 16 -91 41 -13 54 -26 46 -47 -8 -22 -42
-22 -66 0 -10 9 -21 13 -25 9 -4 -4 7 -21 25 -37 27 -25 35 -28 47 -17 8 7 21
19 30 26 28 24 14 55 -33 77 -32 15 -42 25 -40 40 4 25 45 33 54 11 6 -17 24
-22 24 -7 0 8 -46 62 -52 60 -2 -1 -13 -12 -26 -24z"/>
</g>
</svg>
