<?xml version="1.0" encoding="utf-8"?>
<!-- Generator: Adobe Illustrator 23.0.1, SVG Export Plug-In . SVG Version: 6.00 Build 0)  -->
<svg version="1.1" id="Layer_1" xmlns="http://www.w3.org/2000/svg" xmlns:xlink="http://www.w3.org/1999/xlink" x="0px" y="0px"
	 viewBox="0 0 480 480" style="enable-background:new 0 0 480 480;" xml:space="preserve">
<style type="text/css">
	.st0{fill:#FFFFFF;}
	.st1{fill:#FFDE03;}
	.st2{fill:#78B9EB;}
	.st3{fill:#1A6FB0;}
</style>
<g>
	<path class="st0" d="M456,48h-56v-8c0-13.3-10.7-24-24-24H24C10.7,16,0,26.7,0,40v144c0,13.3,10.7,24,24,24h160v40
		c0,13.3,10.7,24,24,24h8.2l-33.8,88.6c-2.1-0.4-4.3-0.6-6.4-0.6c-19,0-35.4,13.4-39.2,32H80v-32c0-13.3-10.7-24-24-24H8
		c-4.4,0-8,3.6-8,8v112c0,4.4,3.6,8,8,8h48c13.3,0,24-10.7,24-24v-32h56.8c3.6,17.9,18.8,31.1,37,32.1s34.8-10.4,40.3-27.7
		c5.6-17.4-1.3-36.3-16.7-46l36-94.3H272c13.3,0,24-10.7,24-24v-40h80c13.3,0,24-10.7,24-24v-8h56c13.3,0,24-10.7,24-24V72
		C480,58.7,469.3,48,456,48z M64,440c0,4.4-3.6,8-8,8H16v-96h40c4.4,0,8,3.6,8,8V440z M176,424c-13.3,0-24-10.7-24-24s10.7-24,24-24
		s24,10.7,24,24S189.3,424,176,424z M280,248c0,4.4-3.6,8-8,8h-64c-4.4,0-8-3.6-8-8v-40h80V248z M384,184c0,4.4-3.6,8-8,8H24
		c-4.4,0-8-3.6-8-8V40c0-4.4,3.6-8,8-8h352c4.4,0,8,3.6,8,8V184z M464,152c0,4.4-3.6,8-8,8h-56V64h56c4.4,0,8,3.6,8,8V152z"/>
	<path class="st1" d="M136,96H56c-4.4,0-8,3.6-8,8v48c0,4.4,3.6,8,8,8h80c4.4,0,8-3.6,8-8v-48C144,99.6,140.4,96,136,96z M128,144
		H64v-32h64V144z"/>
	<path class="st1" d="M48,64h32v16H48V64z"/>
	<path class="st1" d="M88,64h32v16H88V64z"/>
	<path class="st1" d="M128,64h32v16h-32V64z"/>
	<path class="st1" d="M352,40h16v16h-16V40z"/>
</g>
<path class="st2" d="M-151,72h-64v112h64c8.8,0,16-7.2,16-16V88C-135,79.2-142.2,72-151,72z"/>
<path class="st2" d="M-551,120h80v48h-80V120z"/>
<path class="st2" d="M-399,416c0,17.7-14.3,32-32,32s-32-14.3-32-32s14.3-32,32-32S-399,398.3-399,416z"/>
<g>
	<path class="st3" d="M-151,64h-56v-8c0-13.3-10.7-24-24-24h-352c-13.3,0-24,10.7-24,24v144c0,13.3,10.7,24,24,24h160v40
		c0,13.3,10.7,24,24,24h8.2l-33.8,88.6c-2.1-0.4-4.3-0.6-6.4-0.6c-19,0-35.4,13.4-39.2,32H-527v-32c0-13.3-10.7-24-24-24h-48
		c-4.4,0-8,3.6-8,8v112c0,4.4,3.6,8,8,8h48c13.3,0,24-10.7,24-24v-32h56.8c3.6,17.9,18.8,31.1,37,32.1s34.8-10.4,40.3-27.7
		c5.6-17.4-1.3-36.3-16.7-46l36-94.3h38.6c13.3,0,24-10.7,24-24v-40h80c13.3,0,24-10.7,24-24v-8h56c13.3,0,24-10.7,24-24V88
		C-127,74.7-137.7,64-151,64z M-543,456c0,4.4-3.6,8-8,8h-40v-96h40c4.4,0,8,3.6,8,8V456z M-431,440c-13.3,0-24-10.7-24-24
		s10.7-24,24-24s24,10.7,24,24S-417.7,440-431,440z M-327,264c0,4.4-3.6,8-8,8h-64c-4.4,0-8-3.6-8-8v-40h80V264z M-223,200
		c0,4.4-3.6,8-8,8h-352c-4.4,0-8-3.6-8-8V56c0-4.4,3.6-8,8-8h352c4.4,0,8,3.6,8,8V200z M-143,168c0,4.4-3.6,8-8,8h-56V80h56
		c4.4,0,8,3.6,8,8V168z"/>
	<path class="st3" d="M-471,112h-80c-4.4,0-8,3.6-8,8v48c0,4.4,3.6,8,8,8h80c4.4,0,8-3.6,8-8v-48C-463,115.6-466.6,112-471,112z
		 M-479,160h-64v-32h64V160z"/>
	<path class="st3" d="M-559,80h32v16h-32V80z"/>
	<path class="st3" d="M-519,80h32v16h-32V80z"/>
	<path class="st3" d="M-479,80h32v16h-32V80z"/>
	<path class="st3" d="M-255,56h16v16h-16V56z"/>
</g>
</svg>
