<svg xmlns="http://www.w3.org/2000/svg" viewBox="0 0 67.377 67.678">
  <defs>
    <style>
      .cls-1 {
        fill: #268269;
      }

      .cls-2 {
        fill: #fff;
      }
    </style>
  </defs>
  <g id="shield-secured-check-safe-protection" transform="translate(0)">
    <path id="Path_745" data-name="Path 745" class="cls-1" d="M1,11.207v1.04A64.221,64.221,0,0,0,31.65,66.785l3.039,1.849,3.039-1.85a64.217,64.217,0,0,0,30.65-54.536v-1.04L34.688.955Zm35.269,53.18-1.581.962-1.581-.962a61.411,61.411,0,0,1-29.291-51.1l30.871-9.4L65.56,13.284A61.412,61.412,0,0,1,36.269,64.387Z" transform="translate(-1 -0.955)"/>
    <path id="Path_901" data-name="Path 901" class="cls-1" d="M.376,9.467v.864c0,18.375,13.216,38.663,27.96,46.814h1.3C45.38,47.592,57.082,28.705,57.082,10.331V9.467L29.032.955ZM30.348,53.619l-1.316.8-1.316-.8c-14.8-8.985.686.87,1.316.8h0l1.316-.8C30.389,53.785,45.15,44.634,30.348,53.619Z" transform="translate(4.898 4.436)"/>
    <path id="Path_746" data-name="Path 746" class="cls-2" d="M15.425,22.9l-1.132,1.132L20.462,30.2,36.238,14.425l-1.132-1.132L20.462,27.936Z" transform="translate(10.634 9.396)"/>
  </g>
</svg>
