<?xml version="1.0" encoding="utf-8"?>
<!-- Generator: Adobe Illustrator 23.0.1, SVG Export Plug-In . SVG Version: 6.00 Build 0)  -->
<svg version="1.1" id="Layer_1" xmlns="http://www.w3.org/2000/svg" xmlns:xlink="http://www.w3.org/1999/xlink" x="0px" y="0px"
	 viewBox="0 0 480 480" style="enable-background:new 0 0 480 480;" xml:space="preserve">
<style type="text/css">
	.st0{fill:none;}
	.st1{fill:#FFFFFF;}
	.st2{fill:#FFDE03;}
</style>
<path class="st0" d="M232,216c0,8.8-7.2,16-16,16s-16-7.2-16-16s7.2-16,16-16S232,207.2,232,216z"/>
<g>
	<path class="st1" d="M472,432h-24V280c0-3.5-2.3-6.6-5.6-7.6c-3.3-1-7,0.2-9,3l-112,160c-1.7,2.4-1.9,5.6-0.5,8.3
		c1.4,2.6,4.1,4.3,7.1,4.3h104v24c0,4.4,3.6,8,8,8s8-3.6,8-8v-24h24c4.4,0,8-3.6,8-8S476.4,432,472,432z M432,305.4V432h-88.6
		L432,305.4z"/>
	<path class="st1" d="M328,464h-94.7l88.1-103.7c0.2-0.2,0.4-0.5,0.6-0.7c16.6-24.5,11.1-57.7-12.6-75.6c-19.5-14-45.2-15.9-66.6-5
		C221.4,290,208,312,208,336c0,4.4,3.6,8,8,8s8-3.6,8-8c0-18,10.1-34.5,26.1-42.7c16-8.2,35.3-6.8,49.9,3.7
		c16.5,12.7,20.4,36,8.8,53.3l-98.9,116.5c-2,2.4-2.5,5.7-1.2,8.5s4.1,4.6,7.3,4.6h112c4.4,0,8-3.6,8-8S332.4,464,328,464z"/>
	<path class="st1" d="M216.2,424.2c0.2-4.4-3.3-8.1-7.7-8.3C104.1,412,20.3,328.4,16.3,224H48c4.4,0,8-3.6,8-8s-3.6-8-8-8H16.3
		c4-104.2,87.5-187.7,191.7-191.7V40c0,4.4,3.6,8,8,8s8-3.6,8-8V16.3c102.8,4,185.7,85.3,191.6,188l-31.2-31.2
		c-3.1-3-8.1-3-11.2,0.1s-3.1,8.1-0.1,11.2l44.7,44.7c0.8,1,1.9,1.8,3.1,2.3c0.3,0.1,0.6,0.2,1,0.2c0.6,0.2,1.1,0.3,1.7,0.4h0.2h0.2
		c0.6,0,1.2-0.2,1.8-0.4c0.3,0,0.7-0.1,1-0.2c1.1-0.4,2.1-1,2.9-1.8l45.3-45.3c3-3.1,3-8.1-0.1-11.2s-8.1-3.1-11.2-0.1l-32,31.9
		C425.9,90.4,331.4,0.3,216.6,0.1c-0.2,0-0.4-0.1-0.6-0.1s-0.4,0.1-0.6,0.1C96.6,0.3,0.3,96.6,0.1,215.4c0,0.2-0.1,0.4-0.1,0.6
		s0.1,0.4,0.1,0.6c0.2,115.9,91.9,211,207.8,215.3h0.3C212.5,431.8,216,428.4,216.2,424.2z"/>
	<path class="st2" d="M323.5,108.5c-3.1-3.1-8.2-3.1-11.3,0l-86,86c-6.5-2.9-13.9-2.9-20.4,0l-40.7-40.7c-3.1-3-8.1-3-11.2,0.1
		s-3.1,8.1-0.1,11.2l40.6,40.6c-5,10.5-1.7,23.2,7.8,29.9c9.5,6.7,22.5,5.6,30.8-2.6c7.2-7.2,9.1-18.1,4.6-27.3l85.9-85.9
		C326.6,116.7,326.6,111.6,323.5,108.5z M221.7,221.7c-3.2,3-8.1,3-11.3,0c-3.1-3.1-3.1-8.2,0-11.3c3.1-3.1,8.2-3.1,11.3,0
		C224.8,213.5,224.8,218.5,221.7,221.7z"/>
</g>
</svg>
