<svg xmlns="http://www.w3.org/2000/svg" width="711" height="573" viewBox="0 0 711 573">
  <g id="Group_5" data-name="Group 5" transform="translate(-258 -254)">
    <g id="Rectangle_1" data-name="Rectangle 1" transform="translate(278 288)" fill="#f6f6f6" stroke="#707070" stroke-width="1">
      <rect width="671" height="539" stroke="none"/>
      <rect x="0.5" y="0.5" width="670" height="538" fill="none"/>
    </g>
    <g id="Rectangle_2" data-name="Rectangle 2" transform="translate(316 356)" fill="#fff" stroke="#707070" stroke-width="1">
      <rect width="595" height="471" stroke="none"/>
      <rect x="0.5" y="0.5" width="594" height="470" fill="none"/>
    </g>
    <g id="Rectangle_5" data-name="Rectangle 5" transform="translate(258 254)" fill="#e5e5e5" stroke="#707070" stroke-width="1">
      <rect width="711" height="35" stroke="none"/>
      <rect x="0.5" y="0.5" width="710" height="34" fill="none"/>
    </g>
    <g id="Group_1" data-name="Group 1" transform="translate(-88 40)">
      <g id="Path_1" data-name="Path 1" transform="translate(399 361)" fill="#fbfbfb">
        <path d="M 604.5 150.5 L 0.5 150.5 L 0.5 0.5 L 604.5 0.5 L 604.5 150.5 Z" stroke="none"/>
        <path d="M 1 1 L 1 150 L 604 150 L 604 1 L 1 1 M 0 0 L 605 0 L 605 151 L 0 151 L 0 0 Z" stroke="none" fill="#707070"/>
      </g>
      <line id="Line_1" data-name="Line 1" x2="604.5" transform="translate(399.5 379.5)" fill="none" stroke="#707070" stroke-width="1"/>
      <line id="Line_4" data-name="Line 4" x2="604.5" transform="translate(399.5 427.5)" fill="none" stroke="#707070" stroke-width="1"/>
      <line id="Line_6" data-name="Line 6" x2="604.5" transform="translate(399.5 475.5)" fill="none" stroke="#707070" stroke-width="1"/>
      <line id="Line_2" data-name="Line 2" x2="604.5" transform="translate(399.5 403.5)" fill="none" stroke="#707070" stroke-width="1"/>
      <line id="Line_3" data-name="Line 3" x2="604.5" transform="translate(399.5 451.5)" fill="none" stroke="#707070" stroke-width="1"/>
      <line id="Line_5" data-name="Line 5" x2="604.5" transform="translate(399.5 499.5)" fill="none" stroke="#707070" stroke-width="1"/>
      <g id="Rectangle_17" data-name="Rectangle 17" transform="translate(399 497)" fill="#f6f6f6" stroke="#707070" stroke-width="1">
        <rect width="605" height="15" stroke="none"/>
        <rect x="0.5" y="0.5" width="604" height="14" fill="none"/>
      </g>
      <g id="Rectangle_18" data-name="Rectangle 18" transform="translate(666 502)" fill="#fff" stroke="#707070" stroke-width="1">
        <rect width="72" height="6" rx="3" stroke="none"/>
        <rect x="0.5" y="0.5" width="71" height="5" rx="2.5" fill="none"/>
      </g>
    </g>
    <g id="Path_6" data-name="Path 6" transform="translate(305 328)" fill="#e5e5e5">
      <path d="M 617.5 90.5 L 0.5 90.5 L 0.5 0.5 L 617.5 0.5 L 617.5 90.5 Z" stroke="none"/>
      <path d="M 1 1 L 1 90 L 617 90 L 617 1 L 1 1 M 0 0 L 618 0 L 618 91 L 0 91 L 0 0 Z" stroke="none" fill="#707070"/>
    </g>
    <g id="Group_2" data-name="Group 2" transform="translate(-101 57)">
      <g id="Rectangle_6" data-name="Rectangle 6" transform="translate(588 601)" fill="#f6f6f6" stroke="#707070" stroke-width="1">
        <rect width="272.315" height="168.979" stroke="none"/>
        <rect x="0.5" y="0.5" width="271.315" height="167.979" fill="none"/>
      </g>
      <g id="Rectangle_7" data-name="Rectangle 7" transform="translate(618 647)" fill="#fff" stroke="#707070" stroke-width="1">
        <rect width="212.315" height="77" stroke="none"/>
        <rect x="0.5" y="0.5" width="211.315" height="76" fill="none"/>
      </g>
      <text id="Oops_" data-name="Oops!" transform="translate(676.869 700)" fill="#707070" font-size="36" font-family="SegoeUI, Segoe UI"><tspan x="0" y="0">Oops!</tspan></text>
    </g>
    <g id="Rectangle_8" data-name="Rectangle 8" transform="translate(335 760)" fill="#f9f9f9" stroke="#707070" stroke-width="1">
      <rect width="118" height="67" stroke="none"/>
      <rect x="0.5" y="0.5" width="117" height="66" fill="none"/>
    </g>
    <g id="Rectangle_9" data-name="Rectangle 9" transform="translate(342 705)" fill="#fff" stroke="#707070" stroke-width="1">
      <rect width="98" height="56" stroke="none"/>
      <rect x="0.5" y="0.5" width="97" height="55" fill="none"/>
    </g>
    <g id="Rectangle_10" data-name="Rectangle 10" transform="translate(381.86 764.948) rotate(54)" fill="#fff" stroke="#707070" stroke-width="1">
      <rect width="12" height="51" stroke="none"/>
      <rect x="0.5" y="0.5" width="11" height="50" fill="none"/>
    </g>
    <g id="Ellipse_1" data-name="Ellipse 1" transform="translate(343.4 720.463) rotate(-19)" fill="#f9f9f9" stroke="#707070" stroke-width="1">
      <ellipse cx="21" cy="11.5" rx="21" ry="11.5" stroke="none"/>
      <ellipse cx="21" cy="11.5" rx="20.5" ry="11" fill="none"/>
    </g>
    <g id="Rectangle_12" data-name="Rectangle 12" transform="translate(800 697)" fill="#f9f9f9" stroke="#707070" stroke-width="1">
      <rect width="94" height="130" stroke="none"/>
      <rect x="0.5" y="0.5" width="93" height="129" fill="none"/>
    </g>
    <g id="Rectangle_13" data-name="Rectangle 13" transform="translate(787 621)" fill="#fff" stroke="#707070" stroke-width="1">
      <rect width="98" height="77" stroke="none"/>
      <rect x="0.5" y="0.5" width="97" height="76" fill="none"/>
    </g>
    <g id="Rectangle_14" data-name="Rectangle 14" transform="translate(840 697)" fill="#fff" stroke="#707070" stroke-width="1">
      <rect width="14" height="130" stroke="none"/>
      <rect x="0.5" y="0.5" width="13" height="129" fill="none"/>
    </g>
    <g id="Rectangle_16" data-name="Rectangle 16" transform="translate(885 652.5) rotate(90)" fill="#f9f9f9" stroke="#707070" stroke-width="1">
      <rect width="14" height="98" stroke="none"/>
      <rect x="0.5" y="0.5" width="13" height="97" fill="none"/>
    </g>
    <g id="Rectangle_15" data-name="Rectangle 15" transform="translate(829 621)" fill="#f9f9f9" stroke="#707070" stroke-width="1">
      <rect width="14" height="77" stroke="none"/>
      <rect x="0.5" y="0.5" width="13" height="76" fill="none"/>
    </g>
    <g id="Group_4" data-name="Group 4">
      <g id="Rectangle_19" data-name="Rectangle 19" transform="translate(520 345)" fill="#fff" stroke="#707070" stroke-width="1">
        <rect width="188" height="58" stroke="none"/>
        <rect x="0.5" y="0.5" width="187" height="57" fill="none"/>
      </g>
      <text id="_00P5" data-name="00P5" transform="translate(614 388)" fill="#707070" font-size="36" font-family="SegoeUI, Segoe UI"><tspan x="-39.19" y="0">00P5</tspan></text>
    </g>
  </g>
</svg>
