<?xml version="1.0" encoding="utf-8"?>
<!-- Generator: Adobe Illustrator 23.0.1, SVG Export Plug-In . SVG Version: 6.00 Build 0)  -->
<svg version="1.1" id="Capa_1" xmlns="http://www.w3.org/2000/svg" xmlns:xlink="http://www.w3.org/1999/xlink" x="0px" y="0px"
	 viewBox="0 0 512 402.2" style="enable-background:new 0 0 512 402.2;" xml:space="preserve">
<style type="text/css">
	.st0{fill:#000;}
	.st1{fill: #265041;}
</style>
<g>
	<g>
		<g>
			<path class="st0" d="M506.6,181L217.3,15.5C195,2.8,164.5,9.7,149.8,30.7l-56,80.1c-5.5,7.9-8.4,17.1-8.4,26.7
				c0,16.6,8.9,32,23.3,40.3l61,35.2l-11,14.7c-6,8-9.3,17.8-9.3,27.8c0,10.2,3.7,19.9,9.8,27.8L143,307.7H64v-32.1
				c0-5.9-4.8-10.6-10.7-10.6H10.7C4.8,265,0,269.7,0,275.6v106.8c0,5.9,4.8,10.7,10.7,10.7h42.7c5.9,0,10.7-4.8,10.7-10.7v-10.7
				H143c21.4,0,41.4-10.7,53.3-28.5l17.5-26.3c3.4,0.7,6.8,1.4,10.2,1.4c17,0,33-9,41.7-23.6l11.7-19.6l90.8,52.4
				c1.6,0.9,3.5,1.4,5.3,1.4c1,0,2.1-0.1,3.1-0.4c2.8-0.9,5.2-2.8,6.5-5.5l7.9-15.8c1.3,0.1,2.5,0.4,3.9,0.4
				c41.2,0,74.7-33.5,74.7-74.7c0-4.5-0.7-9.2-1.7-14l38.4-19.2c3.5-1.8,5.8-5.3,5.9-9.3C512.1,186.6,510,182.9,506.6,181z
				 M42.7,371.8H21.3v-85.3h21.3L42.7,371.8L42.7,371.8z M178.4,331.5c-7.9,11.9-21.2,19-35.5,19H64v-21.3h78.9
				c7.2,0,13.8-3.6,17.8-9.5l14.8-22.2l18.3,11L178.4,331.5z M247.2,283.9c-7.5,12.4-25,16.8-37.4,9.4l-27-16.3
				c-7.5-4.5-12.1-12.7-12.1-21.4c0-5.4,1.8-10.7,5-14.9l12.6-16.8l70.6,40.7L247.2,283.9z M368.9,303.6l-249.6-144
				c-7.8-4.5-12.6-12.8-12.6-21.8c0-5.2,1.6-10.2,4.6-14.4L138,85l264,152.3L368.9,303.6z M401.6,285.8l22.3-44.7l23.7-11.8
				c0.1,1.3,0.4,2.7,0.4,3.9C448,260.2,427.7,282.3,401.6,285.8z M416.4,221L150.3,67.5l17-24.2c5.6-8,14.8-12.8,24.6-12.8
				c5.2,0,10.4,1.4,14.9,4l272,155.4L416.4,221z"/>
			<circle class="st1" cx="352" cy="254.4" r="10.7"/>
		</g>
	</g>
</g>
<polygon class="st1" points="151.1,66.7 417,220.3 401.1,238.2 137.4,85.8 "/>
<image style="overflow:visible;" width="942" height="181" xlink:href="62C87760.jpg"  transform="matrix(1 0 0 1 -242 -213.11)">
</image>
</svg>
