<?xml version="1.0" encoding="utf-8"?>
<!-- Generator: Adobe Illustrator 23.0.1, SVG Export Plug-In . SVG Version: 6.00 Build 0)  -->
<svg version="1.1" id="Layer_1" xmlns="http://www.w3.org/2000/svg" xmlns:xlink="http://www.w3.org/1999/xlink" x="0px" y="0px"
	 viewBox="0 0 704 704" style="enable-background:new 0 0 704 704;" xml:space="preserve">
<style type="text/css">
	.st0{fill:none;stroke:#000000;stroke-width:20;stroke-miterlimit:10;}
	.st1{fill:none;stroke:#000000;stroke-width:10;stroke-miterlimit:10;}
</style>
<g id="surface1">
	<path class="st0" d="M114.2,572.9v113.3h475.7V572.9H114.2z"/>
	<path class="st1" d="M352,323.7"/>
	<path class="st0" d="M533.2,572.9V459.6c0-100.1-80.8-181-180.9-181c-100.1-0.5-181.3,80.5-181.7,180.6l-0.6,113.3L533.2,572.9z"/>
	<path d="M352,221.8c-6.3,0-11.4-5.1-11.4-11.4V29.2c0-6.3,5.1-11.4,11.4-11.4c6.3,0,11.4,5.1,11.4,11.4v181.2
		C363.4,216.7,358.3,221.8,352,221.8z"/>
	<path d="M250.1,249c-4,0-7.8-2.2-9.8-5.7L149.6,86.4c-3.1-5.4-1.4-12.4,4-15.5c5.4-3.1,12.4-1.4,15.5,4l0.1,0.1l90.7,157
		c3.1,5.4,1.3,12.4-4.1,15.5C254,248.5,252.1,249,250.1,249z"/>
	<path d="M175.4,323.7c-2,0-3.9-0.5-5.7-1.5l-157-90.7c-5.4-3.1-7.4-10-4.2-15.5c3.1-5.5,10-7.4,15.5-4.2l0.1,0.1l157,90.7
		c5.4,3.1,7.3,10.1,4.1,15.5C183.2,321.5,179.4,323.7,175.4,323.7z"/>
	<path d="M528.6,323.7c-6.3,0-11.4-5.1-11.4-11.4c0-4,2.2-7.7,5.7-9.8l157-90.7c5.4-3.1,12.4-1.4,15.5,4s1.4,12.4-4,15.5l-0.1,0.1
		l-157,90.8C532.6,323.2,530.6,323.7,528.6,323.7z"/>
	<path d="M454,249c-6.3,0-11.4-5.1-11.3-11.4c0-2,0.5-3.9,1.5-5.7l90.7-157c3.1-5.4,10.1-7.3,15.5-4c5.4,3.1,7.2,10,4.1,15.4
		l-90.7,157C461.8,246.8,458.1,249.1,454,249z"/>
	<path d="M488,471c-6.3,0-11.4-5.1-11.4-11.4c-0.1-68.8-55.9-124.6-124.7-124.7c-6.3,0-11.4-5.1-11.4-11.4c0-6.3,5.1-11.4,11.4-11.4
		c81.3,0.1,147.2,66,147.3,147.3C499.3,465.9,494.2,471,488,471z"/>
</g>
</svg>
