<?xml version="1.0" encoding="utf-8"?>
<!-- Generator: Adobe Illustrator 23.0.1, SVG Export Plug-In . SVG Version: 6.00 Build 0)  -->
<svg version="1.1" id="Layer_1" xmlns="http://www.w3.org/2000/svg" xmlns:xlink="http://www.w3.org/1999/xlink" x="0px" y="0px"
	 viewBox="0 0 512 512" style="enable-background:new 0 0 512 512;" xml:space="preserve">
<style type="text/css">
	.st0{fill:none;}
	.st1{fill:#000000;}
	.st2{fill:none;stroke:#000000;stroke-width:16;stroke-miterlimit:10;}
</style>
<g>
	<polygon class="st0" points="235.2,452.3 276.5,452.3 256,405.4 	"/>
	<path class="st0" d="M169,326c0.9,0.9,1.7,1.7,2.6,2.6c11.6,14.6,24.7,26.1,38.6,34c13.7,7.7,28.2,12.1,42.3,12.8
		c1.1-0.5,2.2-0.8,3.6-0.8c1.3,0,2.6,0.3,3.8,0.8c23.1-1.1,47.1-12.5,67.2-31.2c4.7-4.7,9.3-9.9,13.6-15.6c0.5-0.5,1-1,1.6-1.6
		c-21.1,3.9-46.8,5.8-77.5,5.8c-5.1,0-8.5-3.4-8.5-8.5s3.4-8.5,8.5-8.5c42,0,71.3-3.5,91.7-9.4c11.9-21.8,19.3-47.7,19.3-75.9v-59.7
		c0-65.7-53.8-119.5-119.5-119.5S136.5,105,136.5,170.7h0v59.7c0,37.2,12.8,70.3,31.9,95.4L169,326z"/>
	<path class="st0" d="M108.4,162.1H95.6c-6,0-10.2,5.1-10.2,10.2v64c0,6,5.1,10.2,10.2,10.2h12.8c6,0,10.2-5.1,10.2-10.2v-64
		C118.6,166.4,113.5,162.1,108.4,162.1z"/>
	<path class="st0" d="M378.9,296.8c14.8-9,20.2-20.4,21.7-32.4c-4-0.4-7.7-1.8-10.9-3.7C387.4,272.9,383.7,285.1,378.9,296.8z"/>
	<path class="st0" d="M212.6,462.5l-1.2,3.1L212.6,462.5l-50.9-69.9c-34.9,4.3-74,18.8-128.4,47.7c-10.2,5.1-16.2,15.4-16.2,26.5
		v28.2h182.1h7L212.6,462.5L212.6,462.5z"/>
	<path class="st0" d="M392.5,172.4v58v6c0,6,5.1,10.2,10.2,10.2h12.8c6,0,10.2-5.1,10.2-10.2v-64c0-6-5.1-10.2-10.2-10.2h-12.8
		C396.8,162.1,392.5,167.3,392.5,172.4z"/>
	<path class="st0" d="M256,34.1c67.8,0,124.4,50.1,134.8,115c3.1-1.7,6.5-2.8,10.1-3.1c-3.8-111.8-92.3-129-144.9-129
		c-52.6,0-141.1,17.2-144.9,129c3.6,0.4,7.1,1.5,10.1,3.1C131.6,84.2,188.2,34.1,256,34.1z"/>
	<path class="st0" d="M243,391.7c-0.4,0-0.7-0.1-1-0.1h-18h18c-27.6-3.6-52.2-17.8-72-38.1c-1.2-1.2-2.4-2.4-3.5-3.6l-3.4,15.4
		l9.4,12.8c0.3,0.3,0.6,0.5,0.9,0.8l35.5,49.1l11.2,15.4l0.7-2l-0.7,2l0.1,0.1L243,391.7z"/>
	<path class="st0" d="M478.7,439.5c-53.3-27.9-93.1-42.4-127.9-47.6l-51.5,70.8l1.5,3.9l-1.5-3.9l0,0l6.5,32.3h3.2h185.9h0v-28.2
		C494.9,455.7,489,445.4,478.7,439.5z"/>
	<polygon class="st0" points="229,469.3 223.9,494.9 287.9,494.9 282.9,469.3 	"/>
	<path class="st0" d="M290.6,440.4l-0.3-0.9L290.6,440.4l1.4,3.1l11.3-15.5l35.5-49.1c0.5-0.7,1-1.2,1.5-1.7l8.7-12l-3.4-15.4
		c-1.2,1.2-2.3,2.5-3.5,3.7c-19.8,20.2-44.4,34.4-72,38.1h29.3h-29.3c-0.3,0-0.7,0.1-1,0.1L290.6,440.4z"/>
	<path class="st1" d="M299.4,462.6l-8.7-22.2L269,391.7c0.4,0,0.7-0.1,1-0.1h-28.1c0.3,0,0.7,0.1,1,0.1l-23,51.8l-0.1-0.1l-7.4,19.1
		l0.1,0.1l-6.5,32.3h17.7l5.1-25.6h53.9l5,25.6h17.9L299.4,462.6L299.4,462.6z M235.2,452.3l20.8-46.8l20.4,46.8H235.2z"/>
	<path class="st1" d="M486.4,425c-50.9-27-90-42.2-124.8-48l3.6-4.9c1.7-1.7,2.6-4.3,1.7-6.8l-8-32c2.9-4.1,5.6-8.3,8.2-12.7
		c31.8-10.8,47.9-29.1,50.6-56.1c14-0.7,26-13.2,26-27.3v-64c0-14-11.1-26.4-25.8-27.3C416.1,96.7,394.4,0,256,0
		C117.6,0,95.9,96.7,94,146c-13.9,0.8-25.7,12.4-25.7,27.3v64c0,14.5,12.8,27.3,28.2,27.3h12.8c4.7,0,9.2-1.4,13.2-3.7
		c4.8,25.7,15.5,50.9,30.7,72.4l-8,32c0,1.7,0,4.3,1.7,6.8l3.6,4.9c-34.8,5.8-73.8,21-124.8,48C9.4,432.6,0,448.9,0,466.8v36.7
		c0,5.1,3.4,8.5,8.5,8.5h204.8h3.4h78.5h3.4h204.8c5.1,0,8.5-3.4,8.5-8.5v-36.7C512,449.7,501.8,433.5,486.4,425z M378.9,296.8
		c4.8-11.7,8.4-23.9,10.7-36.2c3.2,2,6.9,3.3,10.9,3.7C399.1,276.4,393.8,287.8,378.9,296.8z M415.6,162.1c5.1,0,10.2,4.3,10.2,10.2
		v64c0,5.1-4.3,10.2-10.2,10.2h-12.8c-5.1,0-10.2-4.3-10.2-10.2v-6v-58c0-5.1,4.3-10.2,10.2-10.2H415.6z M118.6,236.4
		c0,5.1-4.3,10.2-10.2,10.2H95.6c-5.1,0-10.2-4.3-10.2-10.2v-64c0-5.1,4.3-10.2,10.2-10.2h12.8c5.1,0,10.2,4.3,10.2,10.2V236.4z
		 M121.2,149.2c-3.1-1.6-6.5-2.7-10.1-3.1c3.8-111.8,92.3-129,144.9-129c52.6,0,141.1,17.2,144.9,129c-3.6,0.4-7,1.5-10.1,3.1
		c-10.4-65-67-115-134.8-115C188.2,34.1,131.6,84.2,121.2,149.2z M136.5,230.4v-59.7h0c0-65.7,53.8-119.5,119.5-119.5
		S375.5,105,375.5,170.7v59.7c0,28.2-7.4,54.1-19.3,75.9c-18.5,8.2-29.9,13.2-52.6,12.2c-5.1-0.2-8.5,3.4-8.5,8.5s3.4,8.9,8.5,8.5
		c21.1-1.5,29.4-3.3,38.4-8.5c-0.5,0.5-1,1-1.6,1.6c-4.3,5.7-8.8,10.9-13.6,15.6c-20.1,18.7-44.1,30.1-67.2,31.2
		c-1.2-0.5-2.5-0.8-3.8-0.8c-1.3,0-2.5,0.3-3.6,0.8c-14.1-0.6-28.6-5.1-42.3-12.8c-13.9-8-27-19.5-38.6-34c-0.9-0.9-1.7-1.7-2.6-2.6
		l-0.5-0.2C149.3,300.7,136.5,267.6,136.5,230.4z M494.9,494.9L494.9,494.9H309h-3.2h-17.9h-64h-17.7h-7H17.1v-28.2
		c0-11.1,6-21.3,16.2-26.5c54.4-28.9,93.5-43.4,128.4-47.7l50.9,69.9l7.4-19.1L208.7,428l-35.5-49.1c-0.3-0.3-0.6-0.5-0.9-0.8
		l-9.4-12.8l3.4-15.4c1.2,1.2,2.3,2.5,3.5,3.6c19.8,20.2,44.4,34.4,72,38.1h28.1c27.6-3.6,52.2-17.8,72-38.1
		c1.2-1.2,2.4-2.4,3.5-3.7l3.4,15.4l-8.7,12c-0.6,0.5-1.1,1-1.5,1.7L303.3,428L292,443.5l-1.4-3.1l8.7,22.2l51.5-70.8
		c34.8,5.2,74.6,19.7,127.9,47.6c10.2,6,16.2,16.2,16.2,27.3V494.9z"/>
</g>
<path class="st2" d="M278.9,346.8h-23.2c-11.3,0-20.5-9.2-20.5-20.5v0c0-11.3,9.2-20.5,20.5-20.5h23.2c11.3,0,20.5,9.2,20.5,20.5v0
	C299.4,337.6,290.2,346.8,278.9,346.8z"/>
</svg>
