<svg xmlns="http://www.w3.org/2000/svg" viewBox="0 0 61.949 51.916">
  <defs>
    <style>
      .cls-1, .cls-2 {
        fill: none;
        stroke-miterlimit: 10;
        stroke-width: 1.5px;
      }

      .cls-1 {
        stroke: #000;
      }

      .cls-2 {
        stroke: #000;
      }
    </style>
  </defs>
  <g id="Group_81" data-name="Group 81" transform="translate(0.75 0.75)">
    <g id="Group_75" data-name="Group 75">
      <path id="Path_9" data-name="Path 9" class="cls-1" d="M866.4,260.8H810.467a2.274,2.274,0,0,0-2.268,2.268V296.08a2.274,2.274,0,0,0,2.268,2.268H831.8v8.995h-7.88a1.008,1.008,0,0,0-1,1v1.871a1.008,1.008,0,0,0,1,1h29.005a1.008,1.008,0,0,0,1-1v-1.871a1.008,1.008,0,0,0-1-1h-7.88v-8.995h21.334a2.274,2.274,0,0,0,2.268-2.268V263.068A2.246,2.246,0,0,0,866.4,260.8Z" transform="translate(-808.2 -260.8)"/>
      <path id="Path_10" data-name="Path 10" class="cls-2" d="M875.465,307.619H827.4a2.218,2.218,0,0,1-2.2-2.223V278.923a2.218,2.218,0,0,1,2.2-2.223h48.064a2.218,2.218,0,0,1,2.2,2.223V305.4A2.218,2.218,0,0,1,875.465,307.619Z" transform="translate(-821.189 -273.22)"/>
      <path id="Path_11" data-name="Path 11" class="cls-2" d="M943.941,319.49c.343-1.773-.019-2.345-.9-2.535h0a1.331,1.331,0,0,0-1.411,1.373c-.019-1.239-.3-1.868-1.182-2.04h-.114a1.341,1.341,0,0,0-1.411,1.373c0-.82-.419-1.925-1.411-1.906h0a1.455,1.455,0,0,0-1.411,1.506v-7.054A1.467,1.467,0,0,0,934.7,308.7h0a1.455,1.455,0,0,0-1.411,1.506v9.7L931.74,317.2a1.373,1.373,0,0,0-1.944-.553h0a1.561,1.561,0,0,0-.515,2.059l4.651,7.873a2.432,2.432,0,0,0,.248.362,2.59,2.59,0,0,0,2.211,1.43h4.766c1.01,0,1.582-.82,1.716-1.83a2.946,2.946,0,0,0,.076-.572Z" transform="translate(-906.311 -299.699)"/>
    </g>
  </g>
</svg>
